<svg xmlns="http://www.w3.org/2000/svg" style="display:none" aria-hidden="true"><defs><symbol id="kc-buy" viewBox="0 0 24 24"><title>buy</title><g fill="none" stroke="currentColor" stroke-width="2" stroke-linecap="round" stroke-linejoin="round"><path d="M4.4 10.4h15.2l-1.5 8.1a2 2 0 0 1-2 1.6H7.9a2 2 0 0 1-2-1.6z"/><path d="M8.2 10.4a3.8 3.8 0 0 1 7.6 0"/><path d="M10.2 12.9L10 19.4"/><path d="M13.8 12.9L14 19.4"/></g></symbol><symbol id="kc-track" viewBox="0 0 24 24"><title>track</title><g fill="none" stroke="currentColor" stroke-width="2" stroke-linecap="round" stroke-linejoin="round"><path d="M4.2 15A7.8 7.8 0 0 1 19.8 15"/><path d="M12 15L16.4 10.6"/><circle cx="12" cy="15" r="1.6" fill="currentColor" stroke="none"/></g></symbol><symbol id="kc-store" viewBox="0 0 24 24"><title>store</title><g fill="none" stroke="currentColor" stroke-width="2" stroke-linecap="round" stroke-linejoin="round"><rect x="4.4" y="7.4" width="15.2" height="12.2" rx="2.4"/><path d="M4.4 11.4L19.6 11.4"/><path d="M9.8 14.8L14.2 14.8"/></g></symbol><symbol id="kc-consume" viewBox="0 0 24 24"><title>consume</title><g fill="none" stroke="currentColor" stroke-width="2" stroke-linecap="round" stroke-linejoin="round"><circle cx="12" cy="12.4" r="5.4"/><path d="M4.5 3.6v4.1a2 2 0 0 0 4 0V3.6"/><path d="M6.5 9.8L6.5 20.4"/><path d="M19.5 3.6c1.3 2.6 1.3 5.4 0 8"/><path d="M19.5 11.6L19.5 20.4"/></g></symbol><symbol id="kc-cook" viewBox="0 0 24 24"><title>cook</title><g fill="none" stroke="currentColor" stroke-width="2" stroke-linecap="round" stroke-linejoin="round"><rect x="4.5" y="11" width="15" height="8.5" rx="2.4"/><path d="M3.4 11L20.6 11"/><path d="M9.6 4c-.9 1.1-.9 2.1 0 3.2"/><path d="M14.4 4c-.9 1.1-.9 2.1 0 3.2"/></g></symbol><symbol id="kc-share" viewBox="0 0 24 24"><title>share</title><g fill="none" stroke="currentColor" stroke-width="2" stroke-linecap="round" stroke-linejoin="round"><path d="M8.6 10.9L15.4 7.1"/><path d="M8.6 13.1L15.4 16.9"/><circle cx="6.4" cy="12" r="2.3" fill="currentColor" stroke="none"/><circle cx="17.6" cy="6" r="2.3" fill="currentColor" stroke="none"/><circle cx="17.6" cy="18" r="2.3" fill="currentColor" stroke="none"/></g></symbol><symbol id="kc-donate" viewBox="0 0 24 24"><title>donate</title><g fill="none" stroke="currentColor" stroke-width="2" stroke-linecap="round" stroke-linejoin="round"><path d="M12 16.6c-5.6-3.7-6.8-6-5.7-7.9 1.2-2.1 4.3-1.9 5.7.2 1.4-2.1 4.5-2.3 5.7-.2 1.1 1.9-.1 4.2-5.7 7.9z"/><path d="M4 17.6c0 1.9 3.4 3.4 8 3.4s8-1.5 8-3.4"/></g></symbol><symbol id="kc-reuse" viewBox="0 0 24 24"><title>reuse</title><g fill="none" stroke="currentColor" stroke-width="2" stroke-linecap="round" stroke-linejoin="round"><path d="M5.15 9.78A7.2 7.2 0 0 1 18.58 9.07"/><path d="M19.4 6.19L18.58 9.07L15.88 7.76"/><path d="M18.85 14.22A7.2 7.2 0 0 1 5.42 14.93"/><path d="M4.6 17.81L5.42 14.93L8.12 16.24"/></g></symbol><symbol id="kc-recycle" viewBox="0 0 24 24"><title>recycle</title><g fill="none" stroke="currentColor" stroke-width="2" stroke-linecap="round" stroke-linejoin="round"><path d="M10.72 19.29A7.4 7.4 0 1 1 19.24 10.46"/><path d="M20.69 7.72L19.24 10.46L16.8 8.55"/><path d="M0 0C3.02 -3.92 6.15 -3.29 7.2 0C6.15 3.29 3.02 3.92 0 0Z" transform="translate(9.4,14.2) rotate(-52)" fill="none"/></g></symbol><symbol id="kc-dispose" viewBox="0 0 24 24"><title>dispose</title><g fill="none" stroke="currentColor" stroke-width="2" stroke-linecap="round" stroke-linejoin="round"><path d="M4 7.2L20 7.2"/><path d="M9.6 7.2V5.6a1.4 1.4 0 0 1 1.4-1.4h2a1.4 1.4 0 0 1 1.4 1.4v1.6"/><path d="M6.4 7.2l.85 12.2a2 2 0 0 0 2 1.9h5.5a2 2 0 0 0 2-1.9L17.6 7.2"/><path d="M10.2 13.2l1.5 1.5 2.6-2.9"/></g></symbol><symbol id="kc-ingredient" viewBox="0 0 24 24"><title>ingredient</title><g fill="none" stroke="currentColor" stroke-width="2" stroke-linecap="round" stroke-linejoin="round"><path d="M9.4 6.8h5.2l-1.9 12.6a.75.75 0 0 1-1.4 0z"/><path d="M10.8 6.4C9.9 4.9 8.9 3.9 7.9 3.4"/><path d="M12 6.3L12 3.1"/><path d="M13.2 6.4c.9-1.5 1.9-2.5 2.9-3"/></g></symbol><symbol id="kc-recipe" viewBox="0 0 24 24"><title>recipe</title><g fill="none" stroke="currentColor" stroke-width="2" stroke-linecap="round" stroke-linejoin="round"><rect x="4.5" y="4" width="15" height="16" rx="2.2"/><path d="M8.8 4.2L8.8 19.8"/><path d="M11.6 9L16.6 9"/><path d="M11.6 12.4L16.6 12.4"/><path d="M11.6 15.8L14.6 15.8"/></g></symbol><symbol id="kc-meal" viewBox="0 0 24 24"><title>meal</title><g fill="none" stroke="currentColor" stroke-width="2" stroke-linecap="round" stroke-linejoin="round"><path d="M4.4 15A7.6 7.6 0 0 1 19.6 15"/><circle cx="12" cy="7.4" r="1.15" fill="currentColor" stroke="none"/><path d="M3.2 17.6L20.8 17.6"/></g></symbol><symbol id="kc-portion" viewBox="0 0 24 24"><title>portion</title><g fill="none" stroke="currentColor" stroke-width="2" stroke-linecap="round" stroke-linejoin="round"><path d="M7.4 8.4h8.4v8.4a3.4 3.4 0 0 1-3.4 3.4h-1.6a3.4 3.4 0 0 1-3.4-3.4z"/><path d="M15.8 11h1.4a2.3 2.3 0 0 1 0 4.6h-1.4"/><path d="M9.6 12L11.2 12"/><path d="M9.6 14.6L11.2 14.6"/></g></symbol><symbol id="kc-leftover" viewBox="0 0 24 24"><title>leftover</title><g fill="none" stroke="currentColor" stroke-width="2" stroke-linecap="round" stroke-linejoin="round"><rect x="4" y="6.4" width="16" height="3" rx="1.5"/><rect x="5.6" y="9.4" width="12.8" height="9.6" rx="2.2"/></g></symbol><symbol id="kc-fresh" viewBox="0 0 24 24"><title>fresh</title><g fill="none" stroke="currentColor" stroke-width="2" stroke-linecap="round" stroke-linejoin="round"><path d="M19.6 4.4c-9.4.4-14 4.8-14 10.8 0 2.4 1.6 4 4 4 6 0 10.4-4.6 10-14.8z"/><path d="M17.2 6.8c-3.1 2.1-5.9 5.1-7.8 8.9"/></g></symbol><symbol id="kc-expiring" viewBox="0 0 24 24"><title>expiring</title><g fill="none" stroke="currentColor" stroke-width="2" stroke-linecap="round" stroke-linejoin="round"><circle cx="12" cy="12" r="7.6"/><path d="M12 7.6V12l3.2 2"/></g></symbol><symbol id="kc-expired" viewBox="0 0 24 24"><title>expired</title><g fill="none" stroke="currentColor" stroke-width="2" stroke-linecap="round" stroke-linejoin="round"><rect x="4" y="5.6" width="16" height="14.4" rx="2.2"/><path d="M4 10.4L20 10.4"/><path d="M8 3.8L8 7.2"/><path d="M16 3.8L16 7.2"/><path d="M9.8 13.8l4.4 4.4"/><path d="M14.2 13.8l-4.4 4.4"/></g></symbol><symbol id="kc-fridge" viewBox="0 0 24 24"><title>fridge</title><g fill="none" stroke="currentColor" stroke-width="2" stroke-linecap="round" stroke-linejoin="round"><rect x="5.5" y="3.4" width="13" height="17.2" rx="2.4"/><path d="M5.5 10.6L18.5 10.6"/><path d="M8.4 6L8.4 8.4"/><path d="M8.4 12.6L8.4 15"/></g></symbol><symbol id="kc-freezer" viewBox="0 0 24 24"><title>freezer</title><g fill="none" stroke="currentColor" stroke-width="2" stroke-linecap="round" stroke-linejoin="round"><path d="M12 3.4L12 20.6"/><path d="M4.6 7.7l14.8 8.6"/><path d="M19.4 7.7L4.6 16.3"/></g></symbol><symbol id="kc-pantry" viewBox="0 0 24 24"><title>pantry</title><g fill="none" stroke="currentColor" stroke-width="2" stroke-linecap="round" stroke-linejoin="round"><path d="M3.4 19.4L20.6 19.4"/><rect x="5" y="12" width="4.6" height="7.4" rx="1.5"/><rect x="5.6" y="10.2" width="3.4" height="1.9" rx="0.7"/><rect x="9.8" y="8.6" width="4.6" height="10.8" rx="1.5"/><rect x="10.4" y="6.8" width="3.4" height="1.9" rx="0.7"/><rect x="14.6" y="12.6" width="4.6" height="6.8" rx="1.5"/><rect x="15.2" y="10.8" width="3.4" height="1.9" rx="0.7"/></g></symbol><symbol id="kc-shopping-list" viewBox="0 0 24 24"><title>shopping list</title><g fill="none" stroke="currentColor" stroke-width="2" stroke-linecap="round" stroke-linejoin="round"><rect x="6" y="4.6" width="12" height="15.6" rx="2.2"/><path d="M9.6 2.8h4.8a1 1 0 0 1 1 1v1.5H8.6V3.8a1 1 0 0 1 1-1z"/><path d="M9.2 10.6L14.8 10.6"/><path d="M9.2 13.9L14.8 13.9"/><path d="M9.2 17.2L12.4 17.2"/></g></symbol><symbol id="kc-scan" viewBox="0 0 24 24"><title>scan</title><g fill="none" stroke="currentColor" stroke-width="2" stroke-linecap="round" stroke-linejoin="round"><path d="M4 8.4V6a2 2 0 0 1 2-2h2.4"/><path d="M15.6 4H18a2 2 0 0 1 2 2v2.4"/><path d="M20 15.6V18a2 2 0 0 1-2 2h-2.4"/><path d="M8.4 20H6a2 2 0 0 1-2-2v-2.4"/><path d="M8.4 9.6L8.4 14.4"/><path d="M10.8 9.6L10.8 14.4"/><path d="M13.2 9.6L13.2 14.4"/><path d="M15.6 9.6L15.6 14.4"/></g></symbol><symbol id="kc-market" viewBox="0 0 24 24"><title>market</title><g fill="none" stroke="currentColor" stroke-width="2" stroke-linecap="round" stroke-linejoin="round"><rect x="3.6" y="4.4" width="16.8" height="4.6" rx="1.2"/><path d="M5.6 9L5.6 19.6"/><path d="M18.4 9L18.4 19.6"/><path d="M3.6 15.2L20.4 15.2"/></g></symbol><symbol id="kc-veg-marker" viewBox="0 0 24 24"><title>veg marker</title><g fill="none" stroke="currentColor" stroke-width="2" stroke-linecap="round" stroke-linejoin="round"><rect x="4" y="4" width="16" height="16" rx="3"/><circle cx="12" cy="12" r="3.3" fill="currentColor" stroke="none"/></g></symbol><symbol id="kc-nonveg-marker" viewBox="0 0 24 24"><title>nonveg marker</title><g fill="none" stroke="currentColor" stroke-width="2" stroke-linecap="round" stroke-linejoin="round"><rect x="4" y="4" width="16" height="16" rx="3"/><path d="M12 8.5L15.6 14.9H8.4Z" fill="currentColor" stroke="none"/></g></symbol><symbol id="kc-allergen" viewBox="0 0 24 24"><title>allergen</title><g fill="none" stroke="currentColor" stroke-width="2" stroke-linecap="round" stroke-linejoin="round"><circle cx="8.7" cy="8.7" r="3.7"/><circle cx="15.3" cy="15.5" r="3"/><path d="M10.9 10.9L13.6 13.8"/></g></symbol><symbol id="kc-plant-based" viewBox="0 0 24 24"><title>plant based</title><g fill="none" stroke="currentColor" stroke-width="2" stroke-linecap="round" stroke-linejoin="round"><circle cx="12" cy="12" r="7.8"/><path d="M16.8 7.2c-5.2.2-7.8 2.7-7.8 6 0 1.4.9 2.3 2.3 2.3 3.3 0 5.7-2.6 5.5-8.3z"/></g></symbol><symbol id="kc-no-onion-garlic" viewBox="0 0 24 24"><title>no onion garlic</title><g fill="none" stroke="currentColor" stroke-width="2" stroke-linecap="round" stroke-linejoin="round"><path d="M12 4.6c0 2-5.8 4.4-5.8 9.2a5.8 5.8 0 0 0 11.6 0c0-4.8-5.8-7.2-5.8-9.2z"/><path d="M4.4 4.4L19.6 19.6"/></g></symbol><symbol id="kc-spice" viewBox="0 0 24 24"><title>spice</title><g fill="none" stroke="currentColor" stroke-width="2" stroke-linecap="round" stroke-linejoin="round"><path d="M11.6 8.8c-2.4 3.4-2 8 1.2 10.2 2 1.4 4.5.8 5.4-1.3.8-1.9-.2-4-2.2-4.5-1.3-.3-2.2.4-2.3-.9-.1-1.4-.6-2.4-2.1-3.5z"/><path d="M11.2 8.7C10.6 7 11 5.5 12.3 4.5"/></g></symbol><symbol id="kc-household" viewBox="0 0 24 24"><title>household</title><g fill="none" stroke="currentColor" stroke-width="2" stroke-linecap="round" stroke-linejoin="round"><path d="M3.4 11.4L12 3.8l8.6 7.6"/><path d="M6 9.6v10h12v-10"/><path d="M12 16.4c-2.6-1.7-3.2-2.8-2.7-3.7.55-.95 2-.85 2.7.1.7-.95 2.15-1.05 2.7-.1.5.9-.1 2-2.7 3.7z"/></g></symbol><symbol id="kc-family" viewBox="0 0 24 24"><title>family</title><g fill="none" stroke="currentColor" stroke-width="2" stroke-linecap="round" stroke-linejoin="round"><circle cx="9" cy="8" r="2.7"/><path d="M4.4 19.6a4.6 4.6 0 0 1 9.2 0"/><circle cx="16.8" cy="10.2" r="2.1"/><path d="M13.4 19.6a3.6 3.6 0 0 1 7.2 0"/></g></symbol><symbol id="kc-neighbour" viewBox="0 0 24 24"><title>neighbour</title><g fill="none" stroke="currentColor" stroke-width="2" stroke-linecap="round" stroke-linejoin="round"><path d="M3 12.6L8 8.6l5 4"/><path d="M4.8 11.6v8h6.4v-8"/><path d="M12.6 20.2V11l4.4-3.5 4.4 3.5v9.2"/><path d="M15 20.2v-4.6h4v4.6"/></g></symbol><symbol id="kc-volunteer" viewBox="0 0 24 24"><title>volunteer</title><g fill="none" stroke="currentColor" stroke-width="2" stroke-linecap="round" stroke-linejoin="round"><circle cx="9.2" cy="7.6" r="2.9"/><path d="M4.2 19.8a5 5 0 0 1 10 0"/><path d="M18.2 13.4c-2.3-1.5-2.8-2.5-2.4-3.3.5-.85 1.8-.75 2.4.1.6-.85 1.9-.95 2.4-.1.4.8-.1 1.8-2.4 3.3z"/></g></symbol><symbol id="kc-ngo" viewBox="0 0 24 24"><title>ngo</title><g fill="none" stroke="currentColor" stroke-width="2" stroke-linecap="round" stroke-linejoin="round"><rect x="5.6" y="8.6" width="12.8" height="11" rx="1.8"/><path d="M3.6 8.6L20.4 8.6"/><path d="M12 8.6V3.6h5.4l-1.7 2.5 1.7 2.5H12"/><path d="M10.4 19.6v-4.2h3.2v4.2"/></g></symbol><symbol id="kc-verified" viewBox="0 0 24 24"><title>verified</title><g fill="none" stroke="currentColor" stroke-width="2" stroke-linecap="round" stroke-linejoin="round"><path d="M12 3.2l7 2.6v5.4c0 4.6-3.4 8.2-7 9.6-3.6-1.4-7-5-7-9.6V5.8z"/><path d="M8.9 11.9l2.2 2.2 4-4.4"/></g></symbol><symbol id="kc-caterer" viewBox="0 0 24 24"><title>caterer</title><g fill="none" stroke="currentColor" stroke-width="2" stroke-linecap="round" stroke-linejoin="round"><path d="M7.6 12.4A3.6 3.6 0 1 1 9.3 5.8a3.9 3.9 0 0 1 5.4 0 3.6 3.6 0 1 1 1.7 6.6v7.2h-8.8z"/><path d="M7.6 16.4L16.4 16.4"/></g></symbol><symbol id="kc-event-host" viewBox="0 0 24 24"><title>event host</title><g fill="none" stroke="currentColor" stroke-width="2" stroke-linecap="round" stroke-linejoin="round"><rect x="4" y="5.6" width="16" height="14.4" rx="2.2"/><path d="M4 10.4L20 10.4"/><path d="M8 3.8L8 7.2"/><path d="M16 3.8L16 7.2"/><path d="M12 12.4l1.15 2.35 2.6.38-1.88 1.83.44 2.58L12 18.32l-2.31 1.22.44-2.58-1.88-1.83 2.6-.38z" fill="currentColor" stroke="none"/></g></symbol><symbol id="kc-community" viewBox="0 0 24 24"><title>community</title><g fill="none" stroke="currentColor" stroke-width="2" stroke-linecap="round" stroke-linejoin="round"><circle cx="6.4" cy="9.4" r="2.4"/><circle cx="12" cy="7.4" r="2.4"/><circle cx="17.6" cy="9.4" r="2.4"/><path d="M2.94 19A9.2 9.2 0 0 1 21.06 19"/></g></symbol><symbol id="kc-pickup" viewBox="0 0 24 24"><title>pickup</title><g fill="none" stroke="currentColor" stroke-width="2" stroke-linecap="round" stroke-linejoin="round"><rect x="2.6" y="8" width="11.6" height="9.4" rx="2"/><path d="M14.2 17.4V9.8h3.2l3.4 3.8v3.8"/><circle cx="7" cy="19.4" r="2"/><circle cx="17" cy="19.4" r="2"/></g></symbol><symbol id="kc-delivery" viewBox="0 0 24 24"><title>delivery</title><g fill="none" stroke="currentColor" stroke-width="2" stroke-linecap="round" stroke-linejoin="round"><circle cx="6" cy="16.6" r="3.1"/><circle cx="18" cy="16.6" r="3.1"/><path d="M6 16.6l4.4-6.8h4.6l3 6.8"/><path d="M9.2 9.2L11.4 9.2"/><path d="M10.4 9.8L10.4 9.4"/><path d="M15 9.8l1.4-1.6"/><path d="M15.6 8.2L17.8 8.2"/></g></symbol><symbol id="kc-route" viewBox="0 0 24 24"><title>route</title><g fill="none" stroke="currentColor" stroke-width="2" stroke-linecap="round" stroke-linejoin="round"><path d="M5 19.2c3.2-2.8 4.4-7.8 7.6-10.4S17.8 6 19.6 5.4" stroke-dasharray="3.2 3"/><circle cx="5" cy="19.2" r="1.9" fill="currentColor" stroke="none"/><circle cx="19.6" cy="5.4" r="1.9" fill="currentColor" stroke="none"/></g></symbol><symbol id="kc-claim-surplus" viewBox="0 0 24 24"><title>claim surplus</title><g fill="none" stroke="currentColor" stroke-width="2" stroke-linecap="round" stroke-linejoin="round"><path d="M3.6 8.2L12 4l8.4 4.2v7.6L12 20l-8.4-4.2z"/><path d="M3.6 8.2l8.4 4.2 8.4-4.2"/><path d="M12 12.4L12 20"/><path d="M7.6 13.2l1.5 1.5 2.3-2.5"/></g></symbol><symbol id="kc-meals-saved" viewBox="0 0 24 24"><title>meals saved</title><g fill="none" stroke="currentColor" stroke-width="2" stroke-linecap="round" stroke-linejoin="round"><path d="M19.4 14.4A7.4 7.4 0 0 1 4.6 14.4"/><path d="M4.2 14.4L19.8 14.4"/><path d="M9.4 8.6l1.9 1.9 3.5-3.9"/></g></symbol><symbol id="kc-kg-rescued" viewBox="0 0 24 24"><title>kg rescued</title><g fill="none" stroke="currentColor" stroke-width="2" stroke-linecap="round" stroke-linejoin="round"><path d="M7.8 12L16.2 12"/><rect x="3.4" y="8.2" width="3.4" height="7.6" rx="1.5"/><rect x="7.6" y="9.6" width="2.6" height="4.8" rx="1.1"/><rect x="17.2" y="8.2" width="3.4" height="7.6" rx="1.5"/><rect x="13.8" y="9.6" width="2.6" height="4.8" rx="1.1"/></g></symbol><symbol id="kc-co2-avoided" viewBox="0 0 24 24"><title>co2 avoided</title><g fill="none" stroke="currentColor" stroke-width="2" stroke-linecap="round" stroke-linejoin="round"><path d="M6.6 18.2h8.2a3.5 3.5 0 0 0 .4-6.95 4.9 4.9 0 0 0-9.5-1.05A3.35 3.35 0 0 0 6.6 18.2z"/><path d="M0 0C3.11 -4.14 6.29 -3.48 7.4 0C6.29 3.48 3.11 4.14 0 0Z" transform="translate(13.6,15.4) rotate(-48)" fill="currentColor"/></g></symbol><symbol id="kc-water-saved" viewBox="0 0 24 24"><title>water saved</title><g fill="none" stroke="currentColor" stroke-width="2" stroke-linecap="round" stroke-linejoin="round"><path d="M12 3.4C12 3.4 5.6 10.6 5.6 14.8a6.4 6.4 0 0 0 12.8 0C18.4 10.6 12 3.4 12 3.4z"/></g></symbol><symbol id="kc-streak" viewBox="0 0 24 24"><title>streak</title><g fill="none" stroke="currentColor" stroke-width="2" stroke-linecap="round" stroke-linejoin="round"><path d="M12 3.4C9 7.8 8 9.8 8 12.4a4 4 0 0 0 8 0c0-2.6-1-4.6-4-9z"/><path d="M12 11.4c-1.2 1.6-1.7 2.4-1.7 3.5a1.7 1.7 0 0 0 3.4 0c0-1.1-.5-1.9-1.7-3.5z"/></g></symbol><symbol id="kc-badge" viewBox="0 0 24 24"><title>badge</title><g fill="none" stroke="currentColor" stroke-width="2" stroke-linecap="round" stroke-linejoin="round"><circle cx="12" cy="9.4" r="5.6"/><circle cx="12" cy="9.4" r="1.9" fill="currentColor" stroke="none"/><path d="M8.7 14.2L7.2 20.8l4.8-2.3 4.8 2.3-1.5-6.6"/></g></symbol><symbol id="kc-leaderboard" viewBox="0 0 24 24"><title>leaderboard</title><g fill="none" stroke="currentColor" stroke-width="2" stroke-linecap="round" stroke-linejoin="round"><rect x="4" y="13.6" width="4.2" height="6.8" rx="1.2"/><rect x="9.9" y="9.6" width="4.2" height="10.8" rx="1.2"/><rect x="15.8" y="15.6" width="4.2" height="4.8" rx="1.2"/></g></symbol><symbol id="kc-certificate" viewBox="0 0 24 24"><title>certificate</title><g fill="none" stroke="currentColor" stroke-width="2" stroke-linecap="round" stroke-linejoin="round"><rect x="4.6" y="3.4" width="13" height="13.6" rx="1.8"/><path d="M7.6 7.4L14.6 7.4"/><path d="M7.6 10.4L14.6 10.4"/><path d="M7.6 13.4L11.6 13.4"/><circle cx="17.2" cy="17.6" r="2.7"/><path d="M15.7 19.8l-.9 2.8 2.4-1.2 2.4 1.2-.9-2.8"/></g></symbol><symbol id="kc-tier" viewBox="0 0 24 24"><title>tier</title><g fill="none" stroke="currentColor" stroke-width="2" stroke-linecap="round" stroke-linejoin="round"><path d="M4.6 11.4L12 5.6l7.4 5.8"/><path d="M4.6 16.4L12 10.6l7.4 5.8"/><path d="M4.6 21.4L12 15.6l7.4 5.8"/></g></symbol><symbol id="kc-goal" viewBox="0 0 24 24"><title>goal</title><g fill="none" stroke="currentColor" stroke-width="2" stroke-linecap="round" stroke-linejoin="round"><circle cx="12" cy="12" r="7.8"/><circle cx="12" cy="12" r="4.4"/><circle cx="12" cy="12" r="1.8" fill="currentColor" stroke="none"/></g></symbol><symbol id="kc-search" viewBox="0 0 24 24"><title>search</title><g fill="none" stroke="currentColor" stroke-width="2" stroke-linecap="round" stroke-linejoin="round"><circle cx="11" cy="11" r="6.2"/><path d="M15.6 15.6L20.2 20.2"/></g></symbol><symbol id="kc-filter" viewBox="0 0 24 24"><title>filter</title><g fill="none" stroke="currentColor" stroke-width="2" stroke-linecap="round" stroke-linejoin="round"><path d="M3.4 5.4h17.2l-6.6 7.6v6.4l-4 2.2v-8.6z"/></g></symbol><symbol id="kc-map" viewBox="0 0 24 24"><title>map</title><g fill="none" stroke="currentColor" stroke-width="2" stroke-linecap="round" stroke-linejoin="round"><path d="M3.6 7l5.4-2.6 6 2.6 5.4-2.6v12.6l-5.4 2.6-6-2.6-5.4 2.6z"/><path d="M9 4.6L9 17"/><path d="M15 7L15 19.6"/></g></symbol><symbol id="kc-location" viewBox="0 0 24 24"><title>location</title><g fill="none" stroke="currentColor" stroke-width="2" stroke-linecap="round" stroke-linejoin="round"><path d="M12 20.8s7-7.3 7-11.2a7 7 0 0 0-14 0c0 3.9 7 11.2 7 11.2z"/><circle cx="12" cy="9.5" r="2.6"/></g></symbol><symbol id="kc-calendar" viewBox="0 0 24 24"><title>calendar</title><g fill="none" stroke="currentColor" stroke-width="2" stroke-linecap="round" stroke-linejoin="round"><rect x="4" y="5.6" width="16" height="14.4" rx="2.2"/><path d="M4 10.4L20 10.4"/><path d="M8 3.8L8 7.2"/><path d="M16 3.8L16 7.2"/><circle cx="8.4" cy="14" r="1.15" fill="currentColor" stroke="none"/><circle cx="12" cy="14" r="1.15" fill="currentColor" stroke="none"/><circle cx="15.6" cy="14" r="1.15" fill="currentColor" stroke="none"/><circle cx="8.4" cy="17.4" r="1.15" fill="currentColor" stroke="none"/><circle cx="12" cy="17.4" r="1.15" fill="currentColor" stroke="none"/></g></symbol><symbol id="kc-schedule" viewBox="0 0 24 24"><title>schedule</title><g fill="none" stroke="currentColor" stroke-width="2" stroke-linecap="round" stroke-linejoin="round"><rect x="4" y="5.6" width="16" height="14.4" rx="2.2"/><path d="M4 10.4L20 10.4"/><path d="M8 3.8L8 7.2"/><path d="M16 3.8L16 7.2"/><circle cx="12" cy="15.4" r="3.2"/><path d="M12 13.6v1.9l1.5 1.1"/></g></symbol><symbol id="kc-bell" viewBox="0 0 24 24"><title>bell</title><g fill="none" stroke="currentColor" stroke-width="2" stroke-linecap="round" stroke-linejoin="round"><path d="M18.2 16.4H5.8c1-1.2 1.6-2.7 1.6-5.3 0-2.9 2-5 4.6-5s4.6 2.1 4.6 5c0 2.6.6 4.1 1.6 5.3z"/><path d="M10.2 19.2a1.9 1.9 0 0 0 3.6 0"/><path d="M12 3.4L12 6.1"/></g></symbol><symbol id="kc-message" viewBox="0 0 24 24"><title>message</title><g fill="none" stroke="currentColor" stroke-width="2" stroke-linecap="round" stroke-linejoin="round"><rect x="3.4" y="4.4" width="17.2" height="12.6" rx="2.6"/><path d="M8.4 17.2v4l4.2-4"/></g></symbol><symbol id="kc-invite" viewBox="0 0 24 24"><title>invite</title><g fill="none" stroke="currentColor" stroke-width="2" stroke-linecap="round" stroke-linejoin="round"><circle cx="9.6" cy="7.6" r="3"/><path d="M4.2 19.8a5.4 5.4 0 0 1 10.8 0"/><path d="M18.6 7.6L18.6 13"/><path d="M15.9 10.3L21.3 10.3"/></g></symbol><symbol id="kc-share-arrow" viewBox="0 0 24 24"><title>share arrow</title><g fill="none" stroke="currentColor" stroke-width="2" stroke-linecap="round" stroke-linejoin="round"><path d="M12 3.6L12 14"/><path d="M8.2 7.2L12 3.4l3.8 3.8"/><path d="M8 8.6H6.4a2 2 0 0 0-2 2v8a2 2 0 0 0 2 2h11.2a2 2 0 0 0 2-2v-8a2 2 0 0 0-2-2H16"/></g></symbol><symbol id="kc-qr" viewBox="0 0 24 24"><title>qr</title><g fill="none" stroke="currentColor" stroke-width="2" stroke-linecap="round" stroke-linejoin="round"><rect x="4" y="4" width="6" height="6" rx="1.5"/><rect x="14" y="4" width="6" height="6" rx="1.5"/><rect x="4" y="14" width="6" height="6" rx="1.5"/><path d="M14.4 14.4L17.6 14.4"/><path d="M20 14.4L20 17.6"/><path d="M14.4 17.6L14.4 20"/><path d="M17.6 20L20 20"/></g></symbol><symbol id="kc-profile" viewBox="0 0 24 24"><title>profile</title><g fill="none" stroke="currentColor" stroke-width="2" stroke-linecap="round" stroke-linejoin="round"><circle cx="12" cy="8.8" r="3.6"/><path d="M5.2 20.2a6.8 6.8 0 0 1 13.6 0"/></g></symbol><symbol id="kc-sliders" viewBox="0 0 24 24"><title>sliders</title><g fill="none" stroke="currentColor" stroke-width="2" stroke-linecap="round" stroke-linejoin="round"><path d="M3.6 7.4L20.4 7.4"/><path d="M3.6 12.4L20.4 12.4"/><path d="M3.6 17.4L20.4 17.4"/><circle cx="9" cy="7.4" r="2.1"/><circle cx="15" cy="12.4" r="2.1"/><circle cx="7.6" cy="17.4" r="2.1"/></g></symbol><symbol id="kc-help" viewBox="0 0 24 24"><title>help</title><g fill="none" stroke="currentColor" stroke-width="2" stroke-linecap="round" stroke-linejoin="round"><circle cx="12" cy="12" r="7.8"/><path d="M9.6 9.6a2.5 2.5 0 0 1 4.9.6c0 1.7-2.4 2-2.4 3.5"/><circle cx="12" cy="16.6" r="1.05" fill="currentColor" stroke="none"/></g></symbol><symbol id="kc-star-rating" viewBox="0 0 24 24"><title>star rating</title><g fill="none" stroke="currentColor" stroke-width="2" stroke-linecap="round" stroke-linejoin="round"><path d="M12 3.6l2.6 5.3 5.8.85-4.2 4.1 1 5.8-5.2-2.75-5.2 2.75 1-5.8-4.2-4.1 5.8-.85z"/></g></symbol><symbol id="kc-success" viewBox="0 0 24 24"><title>success</title><g fill="none" stroke="currentColor" stroke-width="2" stroke-linecap="round" stroke-linejoin="round"><circle cx="12" cy="12" r="7.8"/><path d="M8.6 12.1l2.4 2.4 4.4-4.8"/></g></symbol><symbol id="kc-warning" viewBox="0 0 24 24"><title>warning</title><g fill="none" stroke="currentColor" stroke-width="2" stroke-linecap="round" stroke-linejoin="round"><path d="M12 4.2L21 19.4H3z"/><path d="M12 9.6L12 13.8"/><circle cx="12" cy="16.6" r="1.05" fill="currentColor" stroke="none"/></g></symbol><symbol id="kc-error" viewBox="0 0 24 24"><title>error</title><g fill="none" stroke="currentColor" stroke-width="2" stroke-linecap="round" stroke-linejoin="round"><circle cx="12" cy="12" r="7.8"/><path d="M9.4 9.4l5.2 5.2"/><path d="M14.6 9.4l-5.2 5.2"/></g></symbol><symbol id="kc-info" viewBox="0 0 24 24"><title>info</title><g fill="none" stroke="currentColor" stroke-width="2" stroke-linecap="round" stroke-linejoin="round"><circle cx="12" cy="12" r="7.8"/><path d="M12 11.2L12 16.4"/><circle cx="12" cy="8.2" r="1.05" fill="currentColor" stroke="none"/></g></symbol><symbol id="kc-empty" viewBox="0 0 24 24"><title>empty</title><g fill="none" stroke="currentColor" stroke-width="2" stroke-linecap="round" stroke-linejoin="round"><rect x="4" y="4" width="16" height="16" rx="3" stroke-dasharray="3.4 3"/></g></symbol><symbol id="kc-offline" viewBox="0 0 24 24"><title>offline</title><g fill="none" stroke="currentColor" stroke-width="2" stroke-linecap="round" stroke-linejoin="round"><path d="M7 18.4h9.4a3.75 3.75 0 0 0 .4-7.45 5.25 5.25 0 0 0-10.2-1.1A3.6 3.6 0 0 0 7 18.4z"/><path d="M4.4 4.4L19.6 19.6"/></g></symbol><symbol id="kc-sync" viewBox="0 0 24 24"><title>sync</title><g fill="none" stroke="currentColor" stroke-width="2" stroke-linecap="round" stroke-linejoin="round"><path d="M5.8 9.74A6.6 6.6 0 0 1 18.2 9.74"/><path d="M19.16 7.11L18.2 9.74L15.78 8.34"/><path d="M18.2 14.26A6.6 6.6 0 0 1 5.8 14.26"/><path d="M4.84 16.89L5.8 14.26L8.22 15.66"/></g></symbol><symbol id="kc-loading" viewBox="0 0 24 24"><title>loading</title><g fill="none" stroke="currentColor" stroke-width="2" stroke-linecap="round" stroke-linejoin="round"><path d="M13.32 19.48A7.6 7.6 0 1 1 19.48 10.68"/></g></symbol><symbol id="kc-locked" viewBox="0 0 24 24"><title>locked</title><g fill="none" stroke="currentColor" stroke-width="2" stroke-linecap="round" stroke-linejoin="round"><rect x="5" y="10.4" width="14" height="9.6" rx="2.2"/><path d="M8.4 10.4V7.8a3.6 3.6 0 0 1 7.2 0v2.6"/><circle cx="12" cy="15.2" r="1.3" fill="currentColor" stroke="none"/></g></symbol><symbol id="kc-hidden" viewBox="0 0 24 24"><title>hidden</title><g fill="none" stroke="currentColor" stroke-width="2" stroke-linecap="round" stroke-linejoin="round"><path d="M2.6 12s3.7-6 9.4-6 9.4 6 9.4 6-3.7 6-9.4 6-9.4-6-9.4-6z"/><circle cx="12" cy="12" r="2.8"/><path d="M4.4 4.4L19.6 19.6"/></g></symbol></defs></svg>